<?xml version="1.0" encoding="utf-8"?>
<!-- Generator: Adobe Illustrator 27.5.0, SVG Export Plug-In . SVG Version: 6.00 Build 0)  -->
<svg version="1.1" id="Layer_1" xmlns="http://www.w3.org/2000/svg" xmlns:xlink="http://www.w3.org/1999/xlink" x="0px" y="0px"
	 viewBox="0 0 2400 360" style="enable-background:new 0 0 2400 360;" xml:space="preserve">
<style type="text/css">
	.st0{fill:#112145;}
	.st1{fill:#20C9A0;}
</style>
<g>
	<g>
		<g>
			<path class="st0" d="M366.5,73.6c-51.1,0-105.6,29-105.6,110.5c0,81.5,54.6,110.5,105.6,110.5c45.2,0,71.2-14.7,101.9-58.2
				l-36.2-19c-16.9,23.8-31,39.4-65.7,39.4c-33.5,0-55.8-20.5-61.3-56.1l-0.3-2.1H434l35.2-45C458.7,103.5,420.4,73.6,366.5,73.6z
				 M426.7,161.2H306.3l0.6-2.3c7.7-30.4,29.4-47.8,59.6-47.8s51.9,17.4,59.6,47.8L426.7,161.2z"/>
			<path class="st0" d="M602.9,73.6c-51.1,0-105.6,29-105.6,110.5c0,81.5,54.6,110.5,105.6,110.5c45.2,0,71.2-14.7,101.9-58.2
				l-36.2-19c-16.9,23.8-31,39.4-65.7,39.4c-33.5,0-55.8-20.5-61.3-56.1l-0.3-2.1h129.1l35.2-45C695.1,103.5,656.8,73.6,602.9,73.6z
				 M663.1,161.2H542.7l0.6-2.3c7.7-30.4,29.4-47.8,59.6-47.8c30.2,0,51.9,17.4,59.6,47.8L663.1,161.2z"/>
			<path class="st0" d="M875,291H916V180.5c0-68.5-32.4-103.2-96.3-103.2h-8.7c-16.2,0-21.1,7.8-26.7,16.9l-1.6,2.6h-5.3V77.3h-41.1
				V291h41.1V114.7h42.3c48.6,0,55.2,33.3,55.2,65.8V291z"/>
			<path class="st0" d="M951.2,291h103.1c36.5,0,66.1-29.9,66.1-66.6c0-36.7-29.7-66.6-66.1-66.6H1008c-11.8,0-21.4-9.6-21.4-21.4
				c0-12.2,9.4-21.8,21.4-21.8h99.4V77.3h-104.7c-32.7,0-59.2,26.6-59.2,59.2c0,32.4,26.6,58.8,59.2,58.8h51.6
				c14.7,0,23.4,10.9,23.4,29.1c0,16.1-12.8,28.7-29.1,28.7h-97.4V291z"/>
			<path class="st0" d="M1152.8,26.8v164.7c0,69.4,27.9,103.2,85.3,103.2h10v-37.8h-10c-39,0-44.2-33.1-44.2-65.4v-76.8h68.8V77.3
				h-35.2c-16.2,0-21,7.8-26.7,16.9l-1.6,2.6h-5.3v-70H1152.8z"/>
			<path class="st0" d="M1353.1,147.8c-36.4,0-75.5,21.8-75.5,69.7c0,56.9,38,77.1,73.5,77.1c19.2,0,46.3-4,66.7-23.1l0.5-0.5h4.6
				v20h41.1V180.5c0-68.5-32.4-103.2-96.3-103.2h-57.6v37.4h57.6c44.3,0,53.6,27.6,53.6,50.8v1.9h-3.7l-0.5-0.9
				c-8-13.4-18.4-18.6-37.1-18.6H1353.1z M1358.4,256.9c-25.1,0-41.4-15.4-41.4-39.3c0-14.9,16.5-32.3,37.7-32.3h68.2v6.3
				C1423,239.8,1406.1,256.9,1358.4,256.9z"/>
			<g>
				<path class="st0" d="M1599.8,73.9c-51,0-105.5,29-105.5,110.4c0,51.5,26.4,107.5,100.5,110.3c3.1,0.1,6.2,0.1,9.2,0l1.2,0
					c43.6-1.7,76.9-23.8,91.5-60.7l-31.1-16.4c-16.4,23.2-30.1,38.3-62.6,39.3l-1.1,0.1c-0.1,0-0.1,0-0.2,0v0.1l-1.9,0.3
					c-38.6,0-62.5-27.9-62.5-72.7c0-15.4,3-29.5,8.7-40.9c10.5-21.2,29.1-32.3,53.9-32.3c28.7,0,49.9,16.1,58.4,44.2l38.7-20.3
					C1681.7,96.2,1646.5,73.9,1599.8,73.9z"/>
			</g>
			<path class="st0" d="M155.8,168.1v-6.6c14.8,0,31.4-2.5,43.8-15.9l66.7-68.4H208l-89.7,92c-0.2,0.2-0.3,0.4-0.4,0.6h-6.3V149
				v-32.6V77.3H67.5v213.8h44.1v-88.6l4.3-0.8c4.3-0.8,8.4,3,11,5.6c6,6.1,74.5,83.7,74.5,83.7h65.1L155.8,168.1z"/>
			<path class="st0" d="M1806.8,168.1v-6.6c14.8,0,31.4-2.5,43.8-15.9l66.7-68.4H1859l-89.7,92c-0.2,0.2-0.3,0.4-0.4,0.6h-6.3V149
				v-32.6V77.3h-44.1v213.8h44.1v-88.6l4.3-0.8c4.3-0.8,8.4,3,11,5.6c6,6.1,74.5,83.7,74.5,83.7h65.1L1806.8,168.1z"/>
		</g>
		<g>
			<path class="st0" d="M2207.9,30h-125.7c-7.1,0-13.8,3-18.5,8.3L1938,180.3l125.7,141.9c4.7,5.3,11.4,8.3,18.5,8.3h125.7
				c7.1,0,13.8-3,18.5-8.3l125.7-141.9L2226.4,38.3C2221.7,33.1,2215,30,2207.9,30z M1967.6,180.3l110.3-124.5
				c4.3-4.8,11.8-4.8,16,0l110.3,124.5l-110.3,124.5c-4.3,4.8-11.7,4.8-16,0L1967.6,180.3z M2120.3,308.3l113.4-128l-113.4-128h21.8
				c4.9,0,9.6,2.1,12.9,5.8l108.3,122.2l-108.3,122.2c-3.3,3.7-8,5.8-12.9,5.8H2120.3z M2201.3,308.3h-21.8l113.4-128l-113.4-128
				h21.8c4.9,0,9.6,2.1,12.9,5.8l108.3,122.2l-108.3,122.2C2210.9,306.2,2206.2,308.3,2201.3,308.3z"/>
			<g>
				<polygon class="st1" points="2100.7,263.7 2026.8,180.3 2100.7,96.8 2085.9,80.1 1997.2,180.3 2085.9,280.4 				"/>
			</g>
			<g>
				<polygon class="st1" points="2085.9,180.3 2130.3,130.2 2115.5,113.5 2056.3,180.3 2115.5,247 2130.3,230.3 				"/>
			</g>
		</g>
	</g>
</g>
</svg>
