<svg xmlns="http://www.w3.org/2000/svg" xmlns:xlink="http://www.w3.org/1999/xlink" id="Group_1035" data-name="Group 1035" width="55" height="55" viewBox="0 0 55 55"><defs><clipPath id="clip-path"><rect id="Rectangle_790" data-name="Rectangle 790" width="55" height="55" fill="none"></rect></clipPath></defs><g id="Group_1034" data-name="Group 1034" clip-path="url(#clip-path)"><path id="Path_676" data-name="Path 676" d="M50.923,0H4.077A4.082,4.082,0,0,0,0,4.077V50.923A4.082,4.082,0,0,0,4.077,55H50.923A4.082,4.082,0,0,0,55,50.923V4.077A4.082,4.082,0,0,0,50.923,0m1.019,50.923a1.02,1.02,0,0,1-1.019,1.019H4.077a1.02,1.02,0,0,1-1.019-1.019V4.077A1.02,1.02,0,0,1,4.077,3.058H50.923a1.02,1.02,0,0,1,1.019,1.019Z" fill="#112145"></path><path id="Path_677" data-name="Path 677" d="M37.474,23.558A6.529,6.529,0,1,1,44,17.029a6.537,6.537,0,0,1-6.529,6.529m0-10.761a4.232,4.232,0,1,0,4.232,4.232A4.236,4.236,0,0,0,37.474,12.8" fill="#112145"></path><path id="Path_678" data-name="Path 678" d="M17.526,32.222a6.529,6.529,0,1,1,6.529-6.529,6.537,6.537,0,0,1-6.529,6.529m0-10.761a4.232,4.232,0,1,0,4.232,4.232,4.236,4.236,0,0,0-4.232-4.232" fill="#112145"></path><path id="Path_679" data-name="Path 679" d="M36.485,44.5a6.529,6.529,0,1,1,6.529-6.529A6.537,6.537,0,0,1,36.485,44.5m0-10.761a4.232,4.232,0,1,0,4.232,4.232,4.236,4.236,0,0,0-4.232-4.232" fill="#112145"></path><rect id="Rectangle_788" data-name="Rectangle 788" width="11.124" height="2.297" transform="translate(22.274 23.29) rotate(-23.507)" fill="#112145"></rect><rect id="Rectangle_789" data-name="Rectangle 789" width="2.298" height="11.92" transform="matrix(0.476, -0.879, 0.879, 0.476, 21.063, 30.203)" fill="#112145"></rect></g></svg>