<svg xmlns="http://www.w3.org/2000/svg" xmlns:xlink="http://www.w3.org/1999/xlink" id="Group_1033" data-name="Group 1033" width="55" height="55" viewBox="0 0 55 55"><defs><clipPath id="clip-path"><rect id="Rectangle_787" data-name="Rectangle 787" width="55" height="55" fill="none"></rect></clipPath></defs><g id="Group_1032" data-name="Group 1032" clip-path="url(#clip-path)"><path id="Path_672" data-name="Path 672" d="M50.923,0H4.077A4.082,4.082,0,0,0,0,4.077V50.923A4.082,4.082,0,0,0,4.077,55H50.923A4.082,4.082,0,0,0,55,50.923V4.077A4.082,4.082,0,0,0,50.923,0m1.019,50.923a1.02,1.02,0,0,1-1.019,1.019H4.077a1.02,1.02,0,0,1-1.019-1.019V4.077A1.02,1.02,0,0,1,4.077,3.058H50.923a1.02,1.02,0,0,1,1.019,1.019Z" fill="#fff"></path><path id="Path_673" data-name="Path 673" d="M27.5,12.505a9.683,9.683,0,0,1,6.623,16.75,4.162,4.162,0,0,0-1.255,2.575l-.48,4.238a1.845,1.845,0,0,1-1.834,1.639H24.446a1.845,1.845,0,0,1-1.834-1.639l-.49-4.327a4.172,4.172,0,0,0-1.3-2.539,9.685,9.685,0,0,1,6.062-16.678q.311-.02.618-.019m0-2.255q-.376,0-.758.024a11.939,11.939,0,0,0-7.477,20.561A1.933,1.933,0,0,1,19.881,32l.49,4.327a4.1,4.1,0,0,0,4.075,3.64h6.108a4.1,4.1,0,0,0,4.075-3.64l.48-4.239a1.9,1.9,0,0,1,.556-1.183A11.938,11.938,0,0,0,27.5,10.25" fill="#fff"></path><path id="Path_674" data-name="Path 674" d="M30.255,29.807l-2.241-.252s.36-3.2.695-6.233a15.876,15.876,0,0,1-2.369,0l.693,6.234-2.24.25-.854-7.671a1.128,1.128,0,0,1,1.344-1.23,12.513,12.513,0,0,0,4.48,0,1.128,1.128,0,0,1,1.346,1.228c-.37,3.363-.854,7.673-.854,7.673" fill="#fff"></path><path id="Path_675" data-name="Path 675" d="M28.372,44.75H26.943a3.94,3.94,0,0,1-3.936-3.935V39.052a1.128,1.128,0,0,1,1.128-1.128h7.046a1.128,1.128,0,0,1,1.127,1.128v1.763a3.939,3.939,0,0,1-3.936,3.935m-3.11-4.571v.636A1.683,1.683,0,0,0,26.943,42.5h1.429a1.683,1.683,0,0,0,1.681-1.681v-.636Z" fill="#fff"></path></g></svg>