<svg xmlns="http://www.w3.org/2000/svg" xmlns:xlink="http://www.w3.org/1999/xlink" width="55" height="55" viewBox="0 0 55 55"><defs><clipPath id="clip-path"><rect id="Rectangle_714" data-name="Rectangle 714" width="34.596" height="34.588" fill="#fff"></rect></clipPath></defs><g id="Group_1022" data-name="Group 1022" transform="translate(-1104 -2718.182)"><g id="Rectangle_784" data-name="Rectangle 784" transform="translate(1104 2718.182)" fill="none" stroke="#fff" stroke-width="3"><rect width="55" height="55" rx="4" stroke="none"></rect><rect x="1.5" y="1.5" width="52" height="52" rx="2.5" fill="none"></rect></g><g id="Group_1019" data-name="Group 1019" transform="translate(1114.203 2728.388)"><g id="Group_980" data-name="Group 980" transform="translate(0 0)" clip-path="url(#clip-path)"><path id="Path_669" data-name="Path 669" d="M33.827,19.025l-1.951-1.267c.008-.155.012-.312.012-.468s0-.314-.012-.469l1.948-1.263a1.7,1.7,0,0,0,.737-1.76,16.918,16.918,0,0,0-1.066-3.328A1.763,1.763,0,0,0,31.9,9.465l-2.282.06c-.231-.365-.476-.716-.736-1.058L29.662,6.4a1.707,1.707,0,0,0-.447-1.855,17.6,17.6,0,0,0-2.752-2.025,1.7,1.7,0,0,0-1.874.086L22.866,3.867a14.553,14.553,0,0,0-1.806-.614l-.62-2A1.674,1.674,0,0,0,19,.084a17.467,17.467,0,0,0-3.4,0,1.682,1.682,0,0,0-1.446,1.179l-.618,1.992a14.5,14.5,0,0,0-1.806.614L10.005,2.609A1.689,1.689,0,0,0,8.14,2.521,17.574,17.574,0,0,0,5.379,4.552,1.7,1.7,0,0,0,4.934,6.4L5.71,8.467q-.393.512-.736,1.058l-2.288-.06a1.708,1.708,0,0,0-1.584,1A16.8,16.8,0,0,0,.035,13.8a1.691,1.691,0,0,0,.733,1.756L2.72,16.822c-.009.155-.012.312-.012.469s0,.313.012.468L.772,19.022a1.694,1.694,0,0,0-.737,1.76A16.819,16.819,0,0,0,1.1,24.1a1.608,1.608,0,0,0,1.593,1.012l2.282-.059q.346.546.736,1.058l-.777,2.062a1.706,1.706,0,0,0,.447,1.854,17.6,17.6,0,0,0,2.752,2.025,1.688,1.688,0,0,0,1.874-.086l1.723-1.257a14.51,14.51,0,0,0,1.806.614l.62,2A1.674,1.674,0,0,0,15.592,34.5a16.906,16.906,0,0,0,1.706.092c.578,0,1.143-.035,1.7-.09a1.683,1.683,0,0,0,1.446-1.178l.618-1.992a14.56,14.56,0,0,0,1.806-.614l1.724,1.259a1.681,1.681,0,0,0,1.865.087,17.525,17.525,0,0,0,2.761-2.031,1.7,1.7,0,0,0,.446-1.849l-.777-2.066c.262-.341.507-.7.736-1.058l2.288.059a1.692,1.692,0,0,0,1.584-1,16.87,16.87,0,0,0,1.068-3.329,1.692,1.692,0,0,0-.733-1.757m-2.188,3.921-2.252-.059a1.691,1.691,0,0,0-1.466.805,12.308,12.308,0,0,1-.9,1.3,1.648,1.648,0,0,0-.257,1.614l.762,2.031a15.277,15.277,0,0,1-1.912,1.4l-1.7-1.244a1.69,1.69,0,0,0-1.652-.174,12.356,12.356,0,0,1-1.979.672,1.679,1.679,0,0,0-1.2,1.123l-.607,1.957a13.805,13.805,0,0,1-2.348,0l-.609-1.959a1.674,1.674,0,0,0-1.2-1.121,12.4,12.4,0,0,1-1.978-.672,1.684,1.684,0,0,0-1.656.177l-1.7,1.241a15.334,15.334,0,0,1-1.911-1.4l.762-2.031a1.65,1.65,0,0,0-.259-1.616,12.367,12.367,0,0,1-.9-1.3,1.8,1.8,0,0,0-1.466-.8l-2.251.059a14.556,14.556,0,0,1-.733-2.286l2.208-1.434a1.083,1.083,0,0,0,.489-.989c-.025-.314-.051-.628-.051-.946s.026-.632.051-.947a1.083,1.083,0,0,0-.489-.989L2.223,13.92a14.648,14.648,0,0,1,.733-2.286l2.252.06a1.818,1.818,0,0,0,1.466-.806,12.4,12.4,0,0,1,.9-1.3,1.648,1.648,0,0,0,.257-1.614L7.072,5.944a15.291,15.291,0,0,1,1.911-1.4l1.7,1.244a1.68,1.68,0,0,0,1.652.175,12.273,12.273,0,0,1,1.979-.673,1.678,1.678,0,0,0,1.2-1.123l.607-1.957a13.806,13.806,0,0,1,2.348,0l.608,1.959a1.675,1.675,0,0,0,1.2,1.121,12.313,12.313,0,0,1,1.978.673,1.691,1.691,0,0,0,1.656-.178l1.7-1.241a15.434,15.434,0,0,1,1.912,1.4l-.762,2.031a1.652,1.652,0,0,0,.259,1.617,12.356,12.356,0,0,1,.9,1.3,1.779,1.779,0,0,0,1.466.8l2.251-.06a14.587,14.587,0,0,1,.733,2.286l-2.208,1.434a1.083,1.083,0,0,0-.489.989c.025.314.051.628.051.947s-.026.632-.051.946a1.083,1.083,0,0,0,.489.989l2.208,1.434a14.8,14.8,0,0,1-.733,2.286" transform="translate(0 0)" fill="#fff"></path><path id="Path_670" data-name="Path 670" d="M18.288,9.992a8.288,8.288,0,1,0,8.288,8.288,8.3,8.3,0,0,0-8.288-8.288m0,14.415a6.127,6.127,0,1,1,6.127-6.127,6.135,6.135,0,0,1-6.127,6.127" transform="translate(-0.99 -0.99)" fill="#fff"></path></g></g></g></svg>