<svg xmlns="http://www.w3.org/2000/svg" xmlns:xlink="http://www.w3.org/1999/xlink" id="Group_1037" data-name="Group 1037" width="55" height="55" viewBox="0 0 55 55"><defs><clipPath id="clip-path"><rect id="Rectangle_791" data-name="Rectangle 791" width="55" height="55" fill="none"></rect></clipPath></defs><g id="Group_1036" data-name="Group 1036" clip-path="url(#clip-path)"><path id="Path_680" data-name="Path 680" d="M50.923,0H4.077A4.082,4.082,0,0,0,0,4.077V50.923A4.082,4.082,0,0,0,4.077,55H50.923A4.082,4.082,0,0,0,55,50.923V4.077A4.082,4.082,0,0,0,50.923,0m1.019,50.923a1.02,1.02,0,0,1-1.019,1.019H4.077a1.02,1.02,0,0,1-1.019-1.019V4.077A1.02,1.02,0,0,1,4.077,3.058H50.923a1.02,1.02,0,0,1,1.019,1.019Z" fill="#112145"></path><path id="Path_681" data-name="Path 681" d="M43.569,42.553H11.431a1.181,1.181,0,0,1-1.181-1.182V13.628a1.182,1.182,0,0,1,2.364,0V40.19H43.569a1.182,1.182,0,0,1,0,2.363" fill="#112145"></path><path id="Path_682" data-name="Path 682" d="M17.588,37.942a1.182,1.182,0,0,1-1.182-1.181V22.035a1.182,1.182,0,0,1,2.364,0V36.761a1.182,1.182,0,0,1-1.182,1.181" fill="#112145"></path><path id="Path_683" data-name="Path 683" d="M23.695,37.942a1.182,1.182,0,0,1-1.182-1.181V26.7a1.182,1.182,0,1,1,2.364,0V36.761a1.182,1.182,0,0,1-1.182,1.181" fill="#112145"></path><path id="Path_684" data-name="Path 684" d="M29.8,37.942a1.182,1.182,0,0,1-1.182-1.181V20.61a1.182,1.182,0,0,1,2.364,0V36.761A1.182,1.182,0,0,1,29.8,37.942" fill="#112145"></path><path id="Path_685" data-name="Path 685" d="M35.907,37.942a1.182,1.182,0,0,1-1.182-1.181V30.293a1.182,1.182,0,0,1,2.364,0v6.468a1.182,1.182,0,0,1-1.182,1.181" fill="#112145"></path></g></svg>