<svg xmlns="http://www.w3.org/2000/svg" xmlns:xlink="http://www.w3.org/1999/xlink" width="55" height="55" viewBox="0 0 55 55"><defs><clipPath id="clip-path"><rect id="Rectangle_707" data-name="Rectangle 707" width="32.151" height="32.151" fill="#112145"></rect></clipPath></defs><g id="Group_1031" data-name="Group 1031" transform="translate(-1484 -3231.182)"><g id="Rectangle_785" data-name="Rectangle 785" transform="translate(1484 3231.182)" fill="none" stroke="#112145" stroke-width="3"><rect width="55" height="55" rx="4" stroke="none"></rect><rect x="1.5" y="1.5" width="52" height="52" rx="2.5" fill="none"></rect></g><g id="Group_1030" data-name="Group 1030" transform="translate(1495.427 3242.607)"><g id="Group_972" data-name="Group 972" transform="translate(0 0)" clip-path="url(#clip-path)"><path id="Path_657" data-name="Path 657" d="M5,18a1,1,0,0,0-1,1V34.076a1,1,0,0,0,2.008,0V19a1,1,0,0,0-1-1" transform="translate(-0.651 -2.929)" fill="#112145"></path><path id="Path_658" data-name="Path 658" d="M33,24a1,1,0,0,0-1,1V35.052a1,1,0,0,0,2.008,0V25a1,1,0,0,0-1-1" transform="translate(-5.206 -3.905)" fill="#112145"></path><path id="Path_659" data-name="Path 659" d="M19,17.079a1,1,0,0,0,1-1V1A1,1,0,1,0,18,1V16.076a1,1,0,0,0,1,1" transform="translate(-2.928 0)" fill="#112145"></path><path id="Path_660" data-name="Path 660" d="M18.353,22a4.347,4.347,0,0,0-1,8.578v4.148a1,1,0,0,0,2.008,0V30.578a4.347,4.347,0,0,0-1-8.578m0,6.7A2.345,2.345,0,1,1,20.7,26.353,2.35,2.35,0,0,1,18.353,28.7" transform="translate(-2.278 -3.579)" fill="#112145"></path><path id="Path_661" data-name="Path 661" d="M33.357,10.176V1a1,1,0,0,0-2.008,0v9.172a4.353,4.353,0,1,0,2.008,0m-1,6.57A2.345,2.345,0,1,1,34.7,14.4a2.35,2.35,0,0,1-2.345,2.345" transform="translate(-4.555 0)" fill="#112145"></path><path id="Path_662" data-name="Path 662" d="M5.357,5.152V1A1,1,0,1,0,3.349,1V5.152a4.353,4.353,0,1,0,2.008,0m-1,6.57A2.345,2.345,0,1,1,6.7,9.377a2.35,2.35,0,0,1-2.345,2.345" transform="translate(0 0)" fill="#112145"></path></g></g></g></svg>