<svg xmlns="http://www.w3.org/2000/svg" xmlns:xlink="http://www.w3.org/1999/xlink" id="Group_1039" data-name="Group 1039" width="54.999" height="55" viewBox="0 0 54.999 55"><defs><clipPath id="clip-path"><rect id="Rectangle_792" data-name="Rectangle 792" width="54.999" height="55" fill="none"></rect></clipPath></defs><g id="Group_1038" data-name="Group 1038" clip-path="url(#clip-path)"><path id="Path_686" data-name="Path 686" d="M50.923,0H4.077A4.082,4.082,0,0,0,0,4.077V50.923A4.082,4.082,0,0,0,4.077,55H50.923A4.082,4.082,0,0,0,55,50.923V4.077A4.082,4.082,0,0,0,50.923,0m1.019,50.923a1.02,1.02,0,0,1-1.019,1.019H4.077a1.02,1.02,0,0,1-1.019-1.019V4.077A1.02,1.02,0,0,1,4.077,3.058H50.923a1.02,1.02,0,0,1,1.019,1.019Z" fill="#112145"></path><path id="Path_687" data-name="Path 687" d="M42.536,37.018H12.464A2.217,2.217,0,0,1,10.25,34.8V15.234a2.216,2.216,0,0,1,2.214-2.214H42.536a2.217,2.217,0,0,1,2.214,2.214V34.8a2.218,2.218,0,0,1-2.214,2.214M12.613,34.655H42.387V15.384H12.613Z" fill="#112145"></path><path id="Path_688" data-name="Path 688" d="M27.5,41.035a1.182,1.182,0,0,1-1.182-1.182V35.836a1.181,1.181,0,0,1,2.363,0v4.017A1.181,1.181,0,0,1,27.5,41.035" fill="#112145"></path><path id="Path_689" data-name="Path 689" d="M31.517,41.98H23.483a1.181,1.181,0,1,1,0-2.363h8.034a1.181,1.181,0,0,1,0,2.363" fill="#112145"></path><path id="Path_690" data-name="Path 690" d="M43.568,32.055H11.431a1.182,1.182,0,0,1,0-2.363H43.568a1.182,1.182,0,1,1,0,2.363" fill="#112145"></path><path id="Path_691" data-name="Path 691" d="M22.125,27.188a1.181,1.181,0,0,1-1.181-1.181V22.355a1.181,1.181,0,0,1,2.363,0v3.652a1.182,1.182,0,0,1-1.182,1.181" fill="#112145"></path><path id="Path_692" data-name="Path 692" d="M27.468,27.188a1.182,1.182,0,0,1-1.182-1.181V21.331a1.182,1.182,0,0,1,2.363,0v4.676a1.181,1.181,0,0,1-1.181,1.181" fill="#112145"></path><path id="Path_693" data-name="Path 693" d="M32.875,27.188a1.181,1.181,0,0,1-1.181-1.181V18.9a1.181,1.181,0,1,1,2.363,0v7.109a1.182,1.182,0,0,1-1.182,1.181" fill="#112145"></path></g></svg>