<svg xmlns="http://www.w3.org/2000/svg" xmlns:xlink="http://www.w3.org/1999/xlink" width="220" height="29.246" viewBox="0 0 220 29.246"><defs><clipPath id="clip-path"><rect id="Rectangle_533" data-name="Rectangle 533" width="220" height="29.246" fill="none"></rect></clipPath></defs><g id="Group_742" data-name="Group 742" transform="translate(0 0)"><g id="Group_738" data-name="Group 738" transform="translate(0 0)" clip-path="url(#clip-path)"><path id="Path_551" data-name="Path 551" d="M88.622,19C83.7,19,78.448,21.8,78.448,29.645S83.7,40.289,88.622,40.289c4.354,0,6.852-1.417,9.814-5.6l-3.485-1.832c-1.628,2.295-2.989,3.791-6.33,3.791-3.222,0-5.374-1.971-5.9-5.407l-.032-.206H95.122L98.508,26.7c-1.005-4.822-4.7-7.7-9.886-7.7m5.8,8.431h-11.6l.056-.223a5.882,5.882,0,0,1,11.484,0Z" transform="translate(-59.829 -14.491)" fill="#fff"></path><path id="Path_552" data-name="Path 552" d="M184.525,19c-4.918,0-10.173,2.8-10.173,10.644s5.255,10.644,10.173,10.644c4.354,0,6.852-1.417,9.815-5.6l-3.485-1.832c-1.628,2.295-2.988,3.791-6.33,3.791-3.222,0-5.373-1.971-5.9-5.407l-.032-.206h12.434l3.386-4.336c-1.005-4.822-4.7-7.7-9.886-7.7m5.8,8.431h-11.6l.056-.223a5.882,5.882,0,0,1,11.484,0Z" transform="translate(-132.972 -14.491)" fill="#fff"></path><path id="Path_553" data-name="Path 553" d="M284.725,41.071h3.955V30.427c0-6.594-3.119-9.938-9.271-9.938h-.838A2.622,2.622,0,0,0,276,22.119l-.157.252h-.513V20.489h-3.955V41.071h3.955V24.092h4.076c4.684,0,5.316,3.2,5.316,6.336Z" transform="translate(-206.97 -15.626)" fill="#fff"></path><path id="Path_554" data-name="Path 554" d="M356.158,41.071h9.928a6.409,6.409,0,0,0,0-12.818h-4.46a2.081,2.081,0,0,1,0-4.162H371.2v-3.6H361.116a5.683,5.683,0,1,0,0,11.367h4.97c1.413,0,2.257,1.049,2.257,2.806a2.757,2.757,0,0,1-2.806,2.767h-9.379Z" transform="translate(-271.06 -15.626)" fill="#fff"></path><path id="Path_555" data-name="Path 555" d="M440.353,0v15.86c0,6.687,2.686,9.938,8.213,9.938h.958V22.157h-.958c-3.751,0-4.257-3.183-4.257-6.3V8.466h6.627v-3.6h-3.389a2.622,2.622,0,0,0-2.567,1.63l-.157.252h-.513V0Z" transform="translate(-335.84 -0.001)" fill="#fff"></path><path id="Path_556" data-name="Path 556" d="M498.244,27.283c-3.5,0-7.272,2.1-7.272,6.713,0,5.477,3.655,7.428,7.076,7.428a9.337,9.337,0,0,0,6.426-2.226l.052-.048h.445v1.921h3.956V30.427c0-6.594-3.12-9.938-9.271-9.938H494.1v3.6h5.552c4.264,0,5.159,2.662,5.159,4.895v.179h-.359l-.052-.087a3.6,3.6,0,0,0-3.572-1.8Zm.51,10.5A3.643,3.643,0,0,1,494.771,34a3.576,3.576,0,0,1,3.63-3.11h6.571v.61c0,4.641-1.627,6.286-6.218,6.286" transform="translate(-374.445 -15.626)" fill="#fff"></path><path id="Path_557" data-name="Path 557" d="M589.083,19.14c-4.911,0-10.158,2.792-10.158,10.628,0,4.958,2.542,10.351,9.676,10.619.3.012.6.01.883,0l.112,0c4.2-.168,7.4-2.3,8.812-5.846l-3-1.575c-1.582,2.231-2.895,3.693-6.026,3.782l-.1.006h-.022v.007l-.179.033c-3.715,0-6.022-2.683-6.022-7a8.9,8.9,0,0,1,.834-3.94,5.427,5.427,0,0,1,5.188-3.114,5.6,5.6,0,0,1,5.622,4.253l3.724-1.958c-1.46-3.748-4.857-5.892-9.346-5.892" transform="translate(-441.524 -14.597)" fill="#fff"></path><path id="Path_558" data-name="Path 558" d="M8.5,29.238V28.6a5.436,5.436,0,0,0,4.218-1.528l6.426-6.588H13.524l-8.634,8.86c-.014.018-.024.038-.038.057H4.243V20.488H0V41.075H4.243V32.546l.414-.075c.414-.075.811.293,1.055.54.575.583,7.172,8.064,7.172,8.064h6.266Z" transform="translate(0 -15.625)" fill="#fff"></path><path id="Path_559" data-name="Path 559" d="M678.385,29.238V28.6a5.436,5.436,0,0,0,4.218-1.528l6.426-6.588h-5.624l-8.634,8.86c-.015.018-.024.038-.039.057h-.609V20.488h-4.243V41.075h4.243V32.546l.414-.075c.414-.075.811.293,1.055.54.576.583,7.172,8.064,7.172,8.064h6.266Z" transform="translate(-510.892 -15.625)" fill="#fff"></path><path id="Path_560" data-name="Path 560" d="M784.934,1.319h-12.1a2.374,2.374,0,0,0-1.777.8L758.946,15.785l12.108,13.667a2.375,2.375,0,0,0,1.777.8h12.1a2.374,2.374,0,0,0,1.777-.8l12.108-13.667L786.711,2.119a2.373,2.373,0,0,0-1.777-.8m-23.14,14.466L772.415,3.8a1.03,1.03,0,0,1,1.542,0l10.621,11.989-10.622,11.99a1.029,1.029,0,0,1-1.54,0ZM776.5,28.116l10.924-12.33L776.5,3.455h2.1a1.662,1.662,0,0,1,1.244.56l10.428,11.771-10.428,11.77a1.662,1.662,0,0,1-1.244.56Zm7.8,0h-2.1l10.924-12.33L782.2,3.455h2.1a1.663,1.663,0,0,1,1.244.56l10.428,11.771-10.428,11.77a1.662,1.662,0,0,1-1.244.56" transform="translate(-578.819 -1.006)" fill="#fff"></path><path id="Path_561" data-name="Path 561" d="M792.914,39.317l-7.12-8.037,7.12-8.037-1.424-1.607-8.544,9.644,8.544,9.644Z" transform="translate(-597.123 -16.501)" fill="#20c9a0"></path><path id="Path_562" data-name="Path 562" d="M809.795,41.611l4.272-4.822-1.424-1.607-5.7,6.43,5.7,6.43,1.424-1.607Z" transform="translate(-615.427 -26.832)" fill="#20c9a0"></path></g></g></svg>